<svg xmlns="http://www.w3.org/2000/svg" viewBox="0 0 240 180" role="img" aria-labelledby="title desc">
  <title id="title">Rabbitbrush logo</title>
  <desc id="desc">A simple rabbitbrush plant with a path motif beneath it.</desc>
  <defs>
    <style>
      .stem{stroke:#6f7142;stroke-width:3.2;stroke-linecap:round;fill:none}
      .leaf{fill:#9f9a74}
      .flower{fill:#d8b23d}
      .path{fill:#cbbd98}
    </style>
  </defs>
  <g transform="translate(10 10)">
    <path class="stem" d="M75 135c0-18 1-32 4-45 3-14 8-29 14-44"/>
    <path class="stem" d="M75 95c-9-9-18-14-31-18"/>
    <path class="stem" d="M80 80c10-10 18-16 32-20"/>
    <path class="stem" d="M90 58c7-8 12-16 16-27"/>
    <path class="stem" d="M67 76c-11-8-20-10-32-10"/>
    <path class="stem" d="M88 102c12 0 23 3 35 10"/>
    <path class="stem" d="M85 116c11 7 18 16 24 28"/>
    <path class="leaf" d="M50 63c6-2 11-2 16 0-4 4-9 7-16 8-1-3-1-5 0-8z"/>
    <path class="leaf" d="M118 53c-5-2-10-2-15 1 3 4 8 7 15 9 2-3 2-6 0-10z"/>
    <path class="leaf" d="M103 24c-4 2-7 5-9 9 4 1 9 1 14-1 0-4-1-7-5-8z"/>
    <circle class="flower" cx="77" cy="18" r="5"/>
    <circle class="flower" cx="67" cy="21" r="4.5"/>
    <circle class="flower" cx="87" cy="21" r="4.5"/>
    <circle class="flower" cx="58" cy="31" r="4.7"/>
    <circle class="flower" cx="77" cy="30" r="5.2"/>
    <circle class="flower" cx="95" cy="31" r="4.7"/>
    <circle class="flower" cx="64" cy="42" r="4.5"/>
    <circle class="flower" cx="78" cy="42" r="5"/>
    <circle class="flower" cx="92" cy="42" r="4.5"/>
    <circle class="flower" cx="106" cy="42" r="4.2"/>
    <circle class="flower" cx="50" cy="50" r="4"/>
    <circle class="flower" cx="61" cy="56" r="4"/>
    <circle class="flower" cx="75" cy="58" r="4.4"/>
    <circle class="flower" cx="90" cy="57" r="4.4"/>
    <circle class="flower" cx="104" cy="54" r="4"/>
    <circle class="flower" cx="117" cy="49" r="3.8"/>
    <path class="path" d="M48 154c15 0 28-2 40-6 12 4 26 6 43 6 13 0 25-1 37-4-11 10-28 16-48 16-24 0-49-5-72-12z"/>
    <circle class="path" cx="52" cy="144" r="5"/>
    <circle class="path" cx="65" cy="148" r="4.5"/>
    <circle class="path" cx="80" cy="146" r="4.2"/>
    <circle class="path" cx="96" cy="149" r="5"/>
    <circle class="path" cx="111" cy="145" r="4.6"/>
    <circle class="path" cx="127" cy="148" r="4.4"/>
    <circle class="path" cx="142" cy="145" r="4.8"/>
    <circle class="path" cx="157" cy="149" r="4.1"/>
  </g>
</svg>
